<?xml version="1.0" encoding="UTF-8" standalone="no"?>
<!-- Created with Inkscape (http://www.inkscape.org/) -->

<svg
   width="631.87598mm"
   height="180.93401mm"
   viewBox="0 0 631.87597 180.934"
   version="1.1"
   id="svg1"
   xml:space="preserve"
   xmlns:inkscape="http://www.inkscape.org/namespaces/inkscape"
   xmlns:sodipodi="http://sodipodi.sourceforge.net/DTD/sodipodi-0.dtd"
   xmlns="http://www.w3.org/2000/svg"
   xmlns:svg="http://www.w3.org/2000/svg"><sodipodi:namedview
     id="namedview1"
     pagecolor="#ffffff"
     bordercolor="#000000"
     borderopacity="0.25"
     inkscape:showpageshadow="2"
     inkscape:pageopacity="0.0"
     inkscape:pagecheckerboard="0"
     inkscape:deskcolor="#d1d1d1"
     inkscape:document-units="mm" /><defs
     id="defs1"><style
       id="style1">
      .cls-1 {
        fill: #fff;
      }

      .cls-2 {
        fill: aqua;
      }

      .cls-3 {
        fill: #fe0;
      }

      .cls-4 {
        fill: lime;
      }

      .cls-5 {
        fill: #8b90cc;
      }

      .cls-6 {
        fill: #ff0019;
      }

      .cls-7 {
        fill: #ff5e00;
      }

      .cls-8 {
        fill: #231f20;
      }
    </style></defs><g
     inkscape:label="Layer 1"
     inkscape:groupmode="layer"
     id="layer1"
     transform="translate(-281.74655,-96.275559)"><g
       id="g1"
       transform="matrix(0.26458333,0,0,0.26458333,319.2463,133.77563)"><g
         id="g39"><g
           id="g20"><path
             class="cls-8"
             d="m 633.93,326.14 c -4.24,3.6 -8.71,5.43 -13.28,5.43 -9.76,0 -16.31,-6.48 -16.31,-16.12 0,-9.64 6.63,-16.31 16.5,-16.31 4.06,0 7.77,1.55 11.68,4.87 l 1.01,0.86 5.36,-6.93 -0.81,-0.79 c -4.72,-4.6 -10.78,-7.04 -17.53,-7.04 -15.75,0 -26.75,10.42 -26.75,25.34 0,14.92 10.56,25.15 26.28,25.15 6.93,0 13.49,-2.58 18.99,-7.47 l 0.84,-0.74 -4.91,-7.16 z"
             id="path1" /><path
             class="cls-8"
             d="m 698.12,290.11 c -7.63,0 -14.47,3.47 -19.55,9.85 l -0.61,-8.72 h -8.94 v 48.24 h 10.34 v -27.63 c 4.72,-8.17 10.46,-12.14 17.54,-12.14 3.46,0 5.06,0.47 8.07,1.44 l 1.27,0.41 2.4,-8.97 -0.93,-0.46 c -2.79,-1.39 -5.75,-2.01 -9.59,-2.01 z"
             id="path2" /><path
             class="cls-8"
             d="m 755.47,290.11 c -11.92,0 -24.59,8.82 -24.59,25.15 0,15.16 10.41,25.34 25.91,25.34 6.56,0 12.74,-1.91 18.38,-5.67 l 0.97,-0.65 -4.04,-7.28 -1.14,0.72 c -4.48,2.85 -8.57,4.13 -13.23,4.13 -9.15,0 -15.06,-4.82 -16.33,-13.07 h 35.66 l 0.17,-1.08 c 0.18,-1.16 0.39,-2.94 0.39,-4.89 0,-14.01 -8.48,-22.71 -22.14,-22.71 z m 0.19,8.65 c 7.02,0 11.28,4.04 12.25,11.47 H 741.7 c 1.87,-7.84 8.1,-11.47 13.97,-11.47 z"
             id="path3" /><path
             class="cls-8"
             d="m 824.76,290.11 c -9.47,0 -17.9,4.74 -21.09,6.78 l -1.03,0.66 4.38,7.44 1.11,-0.69 c 5.61,-3.49 10.76,-5.26 15.31,-5.26 6.47,0 10.09,3.04 10.77,9.04 -23.48,2.03 -33.1,7.36 -33.1,18.28 0,8.39 6.94,14.24 16.88,14.24 6.94,0 13.3,-3.62 17.19,-6.43 l 0.56,5.31 h 8.9 v -29.29 c 0,-12.76 -7.25,-20.07 -19.89,-20.07 z m 9.54,25.68 v 9.86 c -5.13,4.11 -9.79,6.1 -14.24,6.1 -2.61,0 -8.7,-0.58 -8.7,-5.97 0,-3.99 2.76,-8.27 22.94,-10 z"
             id="path4" /><path
             class="cls-8"
             d="m 913.17,329.68 c -3.75,1.39 -6.88,1.99 -10.46,1.99 -7.5,0 -10.29,-3.02 -10.29,-11.14 v -20.45 h 22.38 v -8.84 h -22.38 v -14.67 h -8.94 l -1.04,14.71 -13.34,0.47 v 8.33 h 12.98 v 20.35 c 0,13.57 6.2,20.17 18.95,20.17 6.18,0 10.91,-1.42 14.73,-2.8 l 1.12,-0.41 -2.42,-8.19 -1.28,0.47 z"
             id="path5" /><path
             class="cls-8"
             d="m 962.78,290.11 c -11.92,0 -24.59,8.82 -24.59,25.15 0,15.16 10.41,25.34 25.91,25.34 6.56,0 12.74,-1.91 18.38,-5.67 l 0.97,-0.65 -4.04,-7.28 -1.14,0.72 c -4.49,2.85 -8.57,4.13 -13.23,4.13 -9.15,0 -15.06,-4.82 -16.33,-13.07 h 35.66 l 0.17,-1.08 c 0.18,-1.16 0.39,-2.95 0.39,-4.89 0,-14.01 -8.49,-22.71 -22.14,-22.71 z m 0.19,8.65 c 7.02,0 11.28,4.04 12.25,11.47 h -26.21 c 1.87,-7.84 8.1,-11.47 13.97,-11.47 z"
             id="path6" /><path
             class="cls-8"
             d="m 1117.65,326.14 c -4.24,3.6 -8.71,5.43 -13.28,5.43 -9.76,0 -16.31,-6.48 -16.31,-16.12 0,-9.64 6.63,-16.31 16.5,-16.31 4.06,0 7.78,1.55 11.68,4.87 l 1.01,0.86 5.36,-6.93 -0.81,-0.79 c -4.72,-4.6 -10.78,-7.04 -17.53,-7.04 -15.75,0 -26.75,10.42 -26.75,25.34 0,14.92 10.56,25.15 26.28,25.15 6.93,0 13.5,-2.58 18.99,-7.47 l 0.84,-0.74 -4.91,-7.16 z"
             id="path7" /><path
             class="cls-8"
             d="m 1168.58,290.11 c -11.48,0 -23.84,7.93 -23.84,25.34 0,16.51 11.99,25.15 23.84,25.15 11.85,0 23.84,-8.64 23.84,-25.15 0,-17.41 -12.36,-25.34 -23.84,-25.34 z m 13.3,25.34 c 0,9.79 -5.22,16.12 -13.3,16.12 -8.08,0 -13.3,-6.33 -13.3,-16.12 0,-9.79 5.22,-16.31 13.3,-16.31 8.08,0 13.3,6.56 13.3,16.31 z"
             id="path8" /><path
             class="cls-8"
             d="m 1251.78,290.11 c -5.16,0 -8.16,2.71 -10.39,6.12 -1.74,-4.06 -4.75,-6.12 -8.97,-6.12 -4.76,0 -7.67,2.21 -9.73,4.94 l -0.42,-3.82 h -8.61 v 48.24 h 10.25 v -34.08 c 2.16,-4.42 3.86,-6.07 6.25,-6.07 1.11,0 3.43,0 3.43,6.72 v 33.43 h 9.69 v -34.05 c 2.51,-4.77 3.83,-6.09 6.06,-6.09 1.08,0 3.62,0 3.62,6.72 v 33.43 h 10.25 v -33.99 c 0,-9.77 -4.16,-15.37 -11.42,-15.37 z"
             id="path9" /><path
             class="cls-8"
             d="m 1310.45,290.11 c -4.96,0 -10.56,2.22 -15.06,5.89 l -0.54,-4.76 h -8.8 v 67.51 h 10.35 V 342 c 0,0 -0.26,-5.98 -0.26,-5.98 3.89,2.86 8.47,4.57 12.44,4.57 10.96,0 22.05,-8.9 22.05,-25.9 0,-15.4 -7.54,-24.59 -20.17,-24.59 z m 9.64,24.59 c 0,10.04 -5.16,16.78 -12.83,16.78 -2.73,0 -6.97,-1.21 -10.86,-4.57 v -21.66 c 3.94,-3.89 8.21,-6.02 12.08,-6.02 7.7,0 11.61,5.2 11.61,15.47 z"
             id="path10" /><path
             class="cls-8"
             d="m 1377.39,290.11 c -11.92,0 -24.59,8.82 -24.59,25.15 0,15.16 10.41,25.34 25.91,25.34 6.56,0 12.74,-1.91 18.38,-5.67 l 0.98,-0.65 -4.05,-7.28 -1.14,0.72 c -4.48,2.85 -8.56,4.13 -13.23,4.13 -9.16,0 -15.06,-4.82 -16.33,-13.07 h 35.66 l 0.17,-1.08 c 0.18,-1.16 0.39,-2.94 0.39,-4.89 0,-14.01 -8.49,-22.71 -22.14,-22.71 z m 0.19,8.65 c 7.02,0 11.28,4.04 12.25,11.47 h -26.21 c 1.87,-7.84 8.1,-11.47 13.97,-11.47 z"
             id="path11" /><path
             class="cls-8"
             d="m 1465.98,329.68 c -3.76,1.39 -6.88,1.99 -10.47,1.99 -7.5,0 -10.29,-3.02 -10.29,-11.14 v -20.45 h 22.38 v -8.84 h -22.38 v -14.67 h -8.94 l -1.04,14.71 -13.34,0.47 v 8.33 h 12.98 v 20.35 c 0,13.57 6.2,20.17 18.95,20.17 6.18,0 10.91,-1.42 14.73,-2.8 l 1.12,-0.41 -2.42,-8.19 -1.28,0.47 z"
             id="path12" /><path
             class="cls-8"
             d="m 1515.59,290.11 c -11.92,0 -24.59,8.82 -24.59,25.15 0,15.16 10.41,25.34 25.91,25.34 6.56,0 12.74,-1.91 18.38,-5.67 l 0.98,-0.65 -4.05,-7.28 -1.14,0.72 c -4.48,2.85 -8.56,4.13 -13.23,4.13 -9.16,0 -15.06,-4.82 -16.33,-13.07 h 35.66 l 0.17,-1.08 c 0.18,-1.16 0.39,-2.94 0.39,-4.89 0,-14.01 -8.49,-22.71 -22.14,-22.71 z m 0.19,8.65 c 7.02,0 11.28,4.04 12.25,11.47 h -26.21 c 1.87,-7.84 8.1,-11.47 13.97,-11.47 z"
             id="path13" /><path
             class="cls-8"
             d="m 1670.46,326.14 c -4.24,3.6 -8.71,5.43 -13.28,5.43 -9.76,0 -16.31,-6.48 -16.31,-16.12 0,-9.64 6.63,-16.31 16.5,-16.31 4.06,0 7.77,1.55 11.68,4.87 l 1.01,0.86 5.36,-6.93 -0.81,-0.79 c -4.72,-4.6 -10.78,-7.04 -17.53,-7.04 -15.75,0 -26.75,10.42 -26.75,25.34 0,14.92 10.56,25.15 26.28,25.15 6.93,0 13.5,-2.58 18.99,-7.47 l 0.84,-0.74 -4.91,-7.16 z"
             id="path14" /><path
             class="cls-8"
             d="m 1721.39,290.11 c -11.48,0 -23.84,7.93 -23.84,25.34 0,16.51 11.99,25.15 23.84,25.15 11.85,0 23.84,-8.64 23.84,-25.15 0,-17.41 -12.36,-25.34 -23.84,-25.34 z m 13.3,25.34 c 0,9.79 -5.22,16.12 -13.3,16.12 -8.08,0 -13.3,-6.33 -13.3,-16.12 0,-9.79 5.35,-16.31 13.3,-16.31 7.95,0 13.3,6.4 13.3,16.31 z"
             id="path15" /><path
             class="cls-8"
             d="m 1795.66,290.11 c -7.19,0 -12.38,3.63 -16.52,7.62 l -0.55,-6.49 h -8.83 v 48.24 h 10.34 v -32.63 c 4.8,-4.93 8.21,-7.42 13.12,-7.42 6.51,0 9.17,3.31 9.17,11.42 v 28.63 h 10.35 v -29.67 c 0,-13.07 -5.74,-19.7 -17.07,-19.7 z"
             id="path16" /><path
             class="cls-8"
             d="m 1864.77,290.11 c -7.19,0 -12.38,3.63 -16.52,7.62 l -0.55,-6.49 h -8.83 v 48.24 h 10.35 v -32.63 c 4.8,-4.93 8.21,-7.42 13.11,-7.42 6.51,0 9.17,3.31 9.17,11.42 v 28.63 h 10.35 v -29.67 c 0,-13.07 -5.74,-19.7 -17.07,-19.7 z"
             id="path17" /><path
             class="cls-8"
             d="m 1930.2,290.11 c -11.92,0 -24.59,8.82 -24.59,25.15 0,15.16 10.41,25.34 25.91,25.34 6.56,0 12.74,-1.91 18.38,-5.67 l 0.98,-0.65 -4.05,-7.28 -1.14,0.72 c -4.48,2.85 -8.56,4.13 -13.23,4.13 -9.16,0 -15.06,-4.82 -16.33,-13.07 h 35.66 l 0.17,-1.08 c 0.18,-1.16 0.39,-2.94 0.39,-4.89 0,-14.01 -8.49,-22.71 -22.14,-22.71 z m 0.19,8.65 c 7.02,0 11.28,4.04 12.25,11.47 h -26.21 c 1.87,-7.84 8.1,-11.47 13.97,-11.47 z"
             id="path18" /><path
             class="cls-8"
             d="m 2015.97,326.14 c -4.24,3.6 -8.71,5.43 -13.28,5.43 -9.76,0 -16.31,-6.48 -16.31,-16.12 0,-9.64 6.63,-16.31 16.5,-16.31 4.06,0 7.77,1.55 11.68,4.87 l 1.01,0.86 5.36,-6.93 -0.81,-0.79 c -4.72,-4.6 -10.78,-7.04 -17.53,-7.04 -15.75,0 -26.75,10.42 -26.75,25.34 0,14.92 10.56,25.15 26.28,25.15 6.93,0 13.5,-2.58 18.99,-7.47 l 0.84,-0.74 -4.91,-7.16 z"
             id="path19" /><path
             class="cls-8"
             d="m 2089.17,329.21 -1.28,0.47 c -3.75,1.39 -6.88,1.99 -10.46,1.99 -7.5,0 -10.29,-3.02 -10.29,-11.14 v -20.45 h 22.38 v -8.84 h -22.38 v -14.67 h -8.94 l -1.04,14.71 -13.34,0.47 v 8.33 h 12.98 v 20.35 c 0,13.57 6.2,20.17 18.95,20.17 6.18,0 10.91,-1.42 14.73,-2.8 l 1.12,-0.41 -2.42,-8.19 z"
             id="path20" /></g><g
           id="g28"><path
             class="cls-8"
             d="m 730.08,54.23 c 0,-11.45 -6.87,-13.86 -12.64,-13.86 -4.63,0 -13.03,0.49 -22.77,1.05 -13.26,0.77 -28.29,1.64 -39.44,1.64 -11.15,0 -26.28,-0.87 -39.58,-1.65 -9.6,-0.56 -17.89,-1.04 -22.38,-1.04 -5.88,0 -12.88,2.4 -12.88,13.86 0,4.34 0.5,8.9 0.98,13.31 0.48,4.4 0.98,8.96 0.98,13.27 0,2.87 -0.45,6.37 -0.93,10.09 -0.5,3.88 -1.02,7.9 -1.02,11.38 0,8.81 4.16,13.86 11.42,13.86 10.35,0 11.18,-6.22 11.18,-14.35 0,-3.45 -0.33,-7.61 -0.69,-12.01 -0.38,-4.77 -0.78,-9.7 -0.78,-14.09 0,-11 2.97,-15.9 20.54,-15.9 17.57,0 20.78,5.28 20.78,17.12 v 89.04 c 0,5.85 -0.42,11.97 -0.87,18.45 l -0.09,1.35 c -0.64,6.15 -3.72,8.78 -10.3,8.78 -1.62,0 -3.36,-0.27 -5.19,-0.56 -2.08,-0.33 -4.23,-0.66 -6.51,-0.66 -5.54,0 -9.71,4.38 -9.71,10.2 0,6.79 4.52,10.69 12.4,10.69 3.67,0 7.9,-0.52 12.81,-1.12 5.99,-0.73 12.77,-1.56 19.88,-1.56 7.11,0 13.73,0.83 19.72,1.55 4.98,0.61 9.28,1.13 12.96,1.13 7.88,0 12.39,-3.9 12.39,-10.69 0,-5.91 -4.19,-10.2 -9.96,-10.2 -1.95,0 -3.93,0.31 -5.85,0.62 -1.86,0.3 -3.79,0.6 -5.62,0.6 -6.58,0 -9.66,-2.63 -10.3,-8.78 -0.65,-6.28 -0.97,-12.76 -0.97,-19.81 V 76.92 c 0,-13.28 4.72,-17.12 21.02,-17.12 17.36,0 20.29,4.91 20.29,15.9 0,5.22 -0.37,9.41 -0.74,13.45 -0.36,3.99 -0.73,8.11 -0.73,13.14 0,9.39 1.71,13.86 11.42,13.86 4.17,0 11.18,-1.8 11.18,-13.86 0,-3.57 -0.51,-7.44 -1.01,-11.17 -0.49,-3.68 -0.95,-7.15 -0.95,-10.29 0,-4.32 0.5,-8.87 0.98,-13.27 0.48,-4.41 0.98,-8.97 0.98,-13.31 z"
             id="path21" /><path
             class="cls-8"
             d="m 926,40.37 c -2.96,0 -7.8,0.53 -13.4,1.15 -6.52,0.72 -13.91,1.53 -19.04,1.53 -5.13,0 -11.02,-0.71 -16.91,-1.4 -5.68,-0.66 -11.05,-1.29 -15.29,-1.29 -6.65,0 -11.66,4.59 -11.66,10.69 0,6.1 4.18,10.2 9.71,10.2 2.26,0 4.33,-0.33 6.33,-0.65 1.85,-0.29 3.61,-0.57 5.38,-0.57 6.48,0 9.65,2.78 10.3,9.02 0.65,6.28 0.97,12.68 0.97,19.56 v 70.01 c 0,14.26 -3.06,23.85 -9.36,29.31 -6.5,5.75 -16.27,8.79 -28.25,8.79 -5.94,0 -20.62,-0.89 -28.66,-9.2 -5.3,-5.3 -8.22,-15.05 -8.22,-27.44 V 88.62 c 0,-6.11 0.32,-12.36 0.97,-19.15 0.42,-6.44 3.69,-9.44 10.3,-9.44 1.77,0 3.52,0.28 5.38,0.57 2,0.32 4.08,0.65 6.33,0.65 5.54,0 9.71,-4.39 9.71,-10.2 0,-6.59 -5.31,-10.69 -13.86,-10.69 -2.98,0 -7.9,0.54 -13.6,1.16 -6.51,0.71 -13.88,1.52 -18.85,1.52 -4.97,0 -11.09,-0.71 -17.04,-1.4 -5.74,-0.66 -11.16,-1.29 -15.4,-1.29 -6.51,0 -11.42,4.59 -11.42,10.69 0,6.1 4.19,10.2 9.96,10.2 1.96,0 3.88,-0.32 5.74,-0.62 1.88,-0.31 3.66,-0.6 5.48,-0.6 6.66,0 9.92,2.71 10.55,8.79 0.66,6.15 0.97,12.44 0.97,19.8 v 74.4 c 0,20.11 5.44,33.86 16.65,42.04 14.39,10.38 32.56,12.56 45.27,12.56 40.66,0 62.16,-20.82 62.16,-60.21 V 88.62 c 0,-6.41 0.33,-12.91 0.97,-19.33 0.64,-6.4 3.82,-9.26 10.3,-9.26 1.83,0 3.76,0.31 5.62,0.6 1.92,0.3 3.9,0.62 5.85,0.62 5.77,0 9.96,-4.29 9.96,-10.2 0,-6.59 -5.31,-10.69 -13.86,-10.69 z"
             id="path22" /><path
             class="cls-8"
             d="m 1124.8,192.1 c -1.92,0 -3.89,0.19 -5.79,0.37 -1.9,0.18 -3.69,0.36 -5.43,0.36 -9.44,0 -12,-1.86 -12,-14.93 v -14.39 c 0,-23.1 -6.31,-34.42 -22.7,-38.84 21,-5.47 31.24,-18.77 31.24,-40.44 0,-11.99 -4.44,-23.04 -12.51,-31.11 -8.82,-8.82 -22.48,-12.75 -44.28,-12.75 -3.03,0 -8.39,0.45 -14.61,0.96 -9.24,0.77 -20.74,1.72 -30.28,1.72 -4.61,0 -11.87,-0.67 -18.88,-1.31 -7.37,-0.68 -15,-1.37 -20.15,-1.37 -7.59,0 -12.88,4.39 -12.88,10.69 0,5.81 4.18,10.2 9.71,10.2 2.1,0 4.16,-0.32 6.15,-0.63 1.93,-0.3 3.76,-0.59 5.56,-0.59 3.93,0 6.62,1.15 8.53,3.69 2.46,3 2.74,14.25 2.74,22.45 v 90.26 c 0,18.1 -6.78,18.1 -11.27,18.1 -1.8,0 -3.63,-0.29 -5.56,-0.59 -1.99,-0.31 -4.05,-0.63 -6.15,-0.63 -5.54,0 -9.71,4.38 -9.71,10.2 0,6.49 5.06,10.69 12.88,10.69 4.39,0 9.79,-0.63 15.5,-1.3 5.8,-0.68 11.8,-1.38 16.7,-1.38 4.9,0 12.34,0.81 18.85,1.52 5.7,0.62 10.62,1.16 13.6,1.16 7.56,0 12.64,-4.29 12.64,-10.69 0,-5.91 -4.19,-10.2 -9.96,-10.2 -1.95,0 -3.93,0.31 -5.85,0.62 -1.86,0.3 -3.79,0.6 -5.62,0.6 -7.04,0 -10.56,-4.1 -10.78,-12.54 -0.33,-12.75 -0.49,-24.47 -0.49,-35.81 0,-5.54 0,-11.27 17.85,-11.27 h 13.17 c 22.03,0 26.29,4.94 29.28,10.9 1.51,3.01 2.24,8 2.24,15.25 v 18.78 c 0,27.78 14.43,33.62 26.54,33.62 5.45,0 9.74,0.23 13.52,0.43 3,0.16 5.59,0.3 8.19,0.3 7.58,0 11.66,-5.88 11.66,-11.42 0,-6.49 -4.58,-10.69 -11.66,-10.69 z M 1083.87,85.21 c 0,17.95 -6.5,29.08 -38.83,29.08 h -26.35 c -4.52,0 -4.68,-0.52 -4.68,-2.97 V 70.34 c 0,-5.93 3.86,-12 32.49,-12 25.15,0 37.37,8.79 37.37,26.88 z"
             id="path23" /><path
             class="cls-8"
             d="m 1338,40.37 c -2.56,0 -7.28,0.51 -12.74,1.1 -6.84,0.74 -14.59,1.58 -19.7,1.58 -5.11,0 -11.49,-0.73 -17.72,-1.44 -5.62,-0.64 -10.93,-1.24 -14.72,-1.24 -9.29,0 -14.83,4 -14.83,10.69 0,5.91 4.19,10.2 9.96,10.2 1.98,0 4.04,-0.32 6.03,-0.63 1.93,-0.3 3.76,-0.59 5.44,-0.59 5.02,0 11.27,0 11.27,19.32 V 185.54 L 1231.72,50.32 c -2.82,-6.69 -7.14,-9.95 -13.22,-9.95 -2.53,0 -6.21,0.59 -10.11,1.22 -4.46,0.72 -9.07,1.46 -12.58,1.46 -3.51,0 -7.9,-0.74 -12.16,-1.46 -3.73,-0.63 -7.26,-1.22 -9.8,-1.22 -9.27,0 -14.59,3.9 -14.59,10.69 0,5.81 4.18,10.2 9.71,10.2 2.07,0 4.06,-0.32 5.97,-0.62 1.94,-0.31 3.78,-0.6 5.73,-0.6 3.93,0 6.62,1.15 8.53,3.69 1.92,2.35 2.74,9.06 2.74,22.46 v 89.52 c 0,17.41 -5.1,18.83 -11.27,18.83 -1.77,0 -3.52,-0.28 -5.38,-0.57 -2,-0.32 -4.08,-0.65 -6.33,-0.65 -5.54,0 -9.71,4.38 -9.71,10.2 0,6.79 5.32,10.69 14.59,10.69 2.83,0 7.84,-0.59 13.14,-1.21 5.88,-0.69 12.55,-1.47 16.62,-1.47 5,0 10.94,0.72 16.7,1.42 5.32,0.65 10.34,1.26 14.29,1.26 9.43,0 14.83,-3.9 14.83,-10.69 0,-5.91 -4.19,-10.2 -9.96,-10.2 -2.14,0 -4.15,0.33 -6.1,0.65 -1.79,0.29 -3.48,0.57 -5.12,0.57 -6.3,0 -11.51,-1.45 -11.51,-19.32 V 69.79 l 54.89,125.45 c 7.95,18.64 14.97,22.38 23.71,22.38 13.95,0 20.44,-10.6 20.44,-33.37 V 80.09 c 0,-18.57 4.88,-20.05 11.27,-20.05 1.8,0 3.63,0.29 5.56,0.59 1.99,0.31 4.05,0.63 6.15,0.63 5.54,0 9.71,-4.39 9.71,-10.2 0,-6.49 -4.1,-10.69 -10.44,-10.69 z"
             id="path24" /><path
             class="cls-8"
             d="m 1542.46,193.32 c -0.81,0 -2.42,0.19 -4.99,0.5 -2.63,0.32 -5.91,0.72 -7.45,0.72 -8.86,0 -10.73,-3.17 -17.24,-20.94 L 1468.63,52.12 v -0.03 c -3.17,-8.32 -8.07,-11.72 -16.92,-11.72 -13.21,0 -15.55,6.21 -20.2,18.57 l -42.32,114.41 -0.2,0.56 c -5.32,14.5 -7.68,20.39 -12.89,20.39 -1.03,0 -2.25,-0.17 -3.66,-0.37 -2.02,-0.28 -4.31,-0.6 -7.07,-0.6 -5.86,0 -9.96,4.19 -9.96,10.2 0,6.01 5.26,10.69 9.96,10.69 1.27,0 4.6,-0.35 9.2,-0.84 7.38,-0.78 17.49,-1.85 23.24,-1.85 5.35,0 14.59,0.97 22.02,1.74 5.04,0.53 9.02,0.94 10.67,0.94 7.41,0 12.4,-4.29 12.4,-10.69 0,-5.91 -4.29,-10.2 -10.2,-10.2 -3.29,0 -6.37,0.37 -9.08,0.7 -2.19,0.27 -4.26,0.52 -6.04,0.52 -6.47,0 -7.36,-2.84 -7.36,-5.9 0,-3.06 2.93,-10.72 5.52,-17.35 1,-2.57 2.04,-5.23 2.9,-7.61 2.96,-8.19 3.63,-9.23 11.38,-9.23 h 45.37 c 3,0 3.12,0 9.92,19.24 1.75,4.79 5.39,14.75 5.49,16.18 0,3.07 -3.09,4.68 -6.14,4.68 -1.68,0 -4.71,-0.29 -7.63,-0.57 -3.31,-0.32 -6.73,-0.65 -8.96,-0.65 -5.4,0 -9.47,4.38 -9.47,10.2 0,3.99 2.05,10.69 15.81,10.69 1.51,0 5.3,-0.4 10.1,-0.9 7.17,-0.75 17,-1.78 22.59,-1.78 5.59,0 15.4,1.04 22.65,1.8 4.87,0.51 8.4,0.88 9.8,0.88 7.56,0 12.64,-4.29 12.64,-10.69 0,-5.91 -4.08,-10.2 -9.71,-10.2 z m -71.43,-59.44 c -0.29,0.11 -0.87,0.16 -1.75,0.16 h -36.83 c -0.99,0 -2.18,0 -2.72,-0.12 0.07,-0.74 0.8,-3.75 2.33,-8.07 l 18.44,-56.67 18.92,58.79 0.33,1.08 c 0.66,2.11 1.22,3.95 1.28,4.83 z"
             id="path25" /><path
             class="cls-8"
             d="m 1698.72,118.79 c 16.26,-6.35 25.46,-18.98 25.46,-35.29 0,-16.31 -7.28,-43.13 -56.06,-43.13 -5.38,0 -13.56,0.58 -22.22,1.2 -10.24,0.73 -20.83,1.48 -29.01,1.48 -8.18,0 -16.75,-0.94 -23.36,-1.69 -4.7,-0.53 -8.76,-1 -11.77,-1 -8.03,0 -12.64,3.9 -12.64,10.69 0,5.81 4.18,10.2 9.71,10.2 2.07,0 4.06,-0.32 5.98,-0.62 1.94,-0.31 3.78,-0.6 5.73,-0.6 3.93,0 6.62,1.15 8.53,3.69 2,2.44 2.74,8.53 2.74,22.45 v 89.28 c 0,19.07 -6.25,19.07 -11.27,19.07 -2.16,0 -4.62,-0.37 -6.79,-0.69 -1.92,-0.29 -3.58,-0.53 -4.92,-0.53 -5.72,0 -9.71,4.19 -9.71,10.2 0,4.3 2.91,10.69 10.93,10.69 1.78,0 5.62,-0.39 10.49,-0.89 7.45,-0.76 17.66,-1.8 24.64,-1.8 6.98,0 14.71,0.6 22.76,1.23 9.05,0.71 18.41,1.45 28.22,1.45 20.27,0 35.06,-4.16 46.53,-13.08 12.72,-9.73 20.02,-23.8 20.02,-38.59 0,-20.88 -12.02,-36.26 -34,-43.75 z m -46.21,-7.68 h -9.76 c -14.64,0 -16.15,-1.24 -16.15,-13.22 v -26.1 c 0,-1.41 0,-5.69 2.27,-7.59 2.53,-2.19 14.9,-4.41 33.63,-4.41 24.32,0 36.15,7.76 36.15,23.71 0,11.85 -4.78,27.61 -46.15,27.61 z m 53.96,49.47 c 0,23.66 -14.2,34.68 -44.69,34.68 -30.49,0 -35.17,-3.25 -35.17,-16.15 v -30 c 0,-3.87 0,-14.14 2.62,-16.01 2.96,-2.11 6.82,-2.33 22.07,-2.33 27.05,0 35.33,2.25 43.65,7.29 v 0 c 10.69,6.42 11.52,18.86 11.52,22.52 z"
             id="path26" /><path
             class="cls-8"
             d="m 1847.17,36.95 c -46.47,0 -75.33,34.66 -75.33,90.46 0,55.8 28.9,90.21 73.62,90.21 23.62,0 43.18,-9.45 56.56,-27.32 12.44,-16.61 19.01,-39.54 19.01,-66.3 0,-40.15 -19.35,-87.04 -73.87,-87.04 z m 47.61,89.97 c 0,42.41 -19.36,69.81 -49.32,69.81 -28.33,0 -47.37,-27.47 -47.37,-68.35 0,-45.49 17.6,-70.54 49.56,-70.54 14.17,0 47.13,6.73 47.13,69.08 z"
             id="path27" /><path
             class="cls-8"
             d="m 2102.77,80.82 c 0,-4.32 0.5,-8.87 0.98,-13.27 0.48,-4.41 0.98,-8.97 0.98,-13.31 0,-11.45 -6.87,-13.86 -12.64,-13.86 -4.63,0 -13.03,0.49 -22.77,1.05 -13.26,0.77 -28.29,1.64 -39.44,1.64 -11.15,0 -26.28,-0.87 -39.58,-1.65 -9.6,-0.56 -17.89,-1.04 -22.38,-1.04 -5.88,0 -12.88,2.4 -12.88,13.86 0,4.34 0.5,8.9 0.98,13.31 0.48,4.4 0.98,8.96 0.98,13.27 0,2.87 -0.45,6.37 -0.93,10.09 -0.5,3.88 -1.02,7.9 -1.02,11.38 0,8.81 4.16,13.86 11.42,13.86 10.35,0 11.18,-6.22 11.18,-14.35 0,-3.45 -0.33,-7.61 -0.69,-12.01 -0.38,-4.77 -0.78,-9.7 -0.78,-14.09 0,-11 2.97,-15.9 20.54,-15.9 17.57,0 20.78,5.28 20.78,17.12 v 89.04 c 0,5.85 -0.42,11.97 -0.87,18.45 l -0.09,1.35 c -0.64,6.15 -3.72,8.78 -10.3,8.78 -1.62,0 -3.36,-0.27 -5.19,-0.56 -2.08,-0.33 -4.23,-0.66 -6.52,-0.66 -5.54,0 -9.71,4.38 -9.71,10.2 0,6.79 4.52,10.69 12.39,10.69 3.67,0 7.9,-0.52 12.81,-1.12 5.99,-0.73 12.77,-1.56 19.88,-1.56 7.11,0 13.73,0.83 19.72,1.55 4.98,0.61 9.28,1.13 12.96,1.13 7.88,0 12.39,-3.9 12.39,-10.69 0,-5.91 -4.19,-10.2 -9.96,-10.2 -1.95,0 -3.93,0.31 -5.85,0.62 -1.86,0.3 -3.78,0.6 -5.62,0.6 -6.58,0 -9.67,-2.63 -10.3,-8.78 -0.65,-6.28 -0.97,-12.76 -0.97,-19.81 V 76.92 c 0,-13.28 4.72,-17.12 21.02,-17.12 17.36,0 20.29,4.91 20.29,15.9 0,5.22 -0.37,9.41 -0.74,13.45 -0.36,3.99 -0.73,8.11 -0.73,13.14 0,9.39 1.71,13.86 11.42,13.86 4.17,0 11.18,-1.8 11.18,-13.86 0,-3.57 -0.51,-7.44 -1,-11.17 -0.49,-3.68 -0.95,-7.15 -0.95,-10.29 z"
             id="path28" /></g><g
           id="g30"><path
             class="cls-8"
             d="m 130.77,393.6 c -1.91,0 -3.73,-0.86 -4.94,-2.33 L 12.56,253.67 c -1.33,-1.62 -1.79,-3.79 -1.22,-5.81 0.57,-2.01 2.09,-3.63 4.07,-4.31 l 28.14,-9.73 -3.56,-3.14 c -1.52,-1.34 -2.32,-3.31 -2.15,-5.33 L 51.65,56.16 c 0.27,-3.32 3.05,-5.88 6.38,-5.88 h 43.3 l 5.43,-38.37 c 0.45,-3.16 3.15,-5.5 6.34,-5.5 h 306.75 c 3.19,0 5.89,2.35 6.34,5.5 l 5.43,38.37 h 43.3 c 3.33,0 6.11,2.56 6.38,5.88 l 13.82,169.19 c 0.17,2.01 -0.63,3.99 -2.15,5.33 l -3.56,3.14 28.13,9.73 c 1.98,0.69 3.5,2.3 4.07,4.32 0.57,2.01 0.11,4.18 -1.22,5.8 l -113.26,137.6 c -1.22,1.48 -3.03,2.33 -4.94,2.33 z"
             id="path29" /><path
             class="cls-1"
             d="m 419.86,12.8 6.21,43.88 h 48.86 l 13.82,169.19 -11.82,10.39 38.53,13.34 L 402.2,387.2 H 130.77 L 17.51,249.6 56.04,236.26 44.22,225.87 58.03,56.68 h 48.86 L 113.1,12.8 h 306.76 m 0,-12.8 H 113.1 c -6.38,0 -11.78,4.69 -12.68,11.01 L 95.77,43.88 H 58.03 C 51.36,43.88 45.81,49 45.27,55.64 L 31.45,224.83 c -0.17,2.1 0.18,4.17 0.98,6.06 l -19.11,6.62 c -3.96,1.37 -7,4.59 -8.14,8.63 -1.14,4.03 -0.22,8.37 2.44,11.61 l 113.26,137.6 c 2.43,2.95 6.06,4.67 9.89,4.67 h 271.41 c 3.83,0 7.45,-1.71 9.89,-4.67 l 113.26,-137.6 c 2.66,-3.24 3.58,-7.57 2.44,-11.61 -1.14,-4.04 -4.17,-7.26 -8.14,-8.63 l -19.11,-6.62 c 0.8,-1.88 1.15,-3.96 0.98,-6.06 L 487.68,55.64 C 487.14,48.99 481.59,43.88 474.92,43.88 H 437.18 L 432.53,11.01 C 431.64,4.69 426.23,0 419.85,0 v 0 z"
             id="path30" /></g><polygon
           class="cls-1"
           points="186.92,146.97 266.48,146.97 346.03,146.97 327.95,33.87 269.22,33.87 263.73,33.87 205,33.87 "
           id="polygon30" /><polygon
           class="cls-1"
           points="366.77,146.46 376.71,157.34 428.34,157.34 427.19,139.65 396.68,129.14 386.19,41.67 351.53,41.67 "
           id="polygon31" /><polygon
           class="cls-1"
           points="166.19,146.44 181.42,41.67 146.76,41.67 136.27,129.14 105.76,139.65 104.61,157.34 156.19,157.34 "
           id="polygon32" /><polygon
           class="cls-1"
           points="177.43,157.34 114.38,236.41 44.27,258.19 143.02,364.73 263.66,364.73 269.29,364.73 389.93,364.73 488.68,258.19 411.8,236.41 354.61,157.34 "
           id="polygon33" /><polygon
           class="cls-1"
           points="112.03,77.15 73.58,77.15 70.24,132.71 106.16,115.91 "
           id="polygon34" /><polygon
           class="cls-1"
           points="105.99,178.35 103.08,223.73 139.22,178.35 "
           id="polygon35" /><polygon
           class="cls-1"
           points="66.91,164.65 64.3,209.95 77.92,223.57 81.15,173.59 "
           id="polygon36" /><polygon
           class="cls-1"
           points="420.92,77.15 459.37,77.15 462.71,132.71 426.79,115.91 "
           id="polygon37" /><polygon
           class="cls-1"
           points="426.97,178.35 429.87,223.73 393.73,178.35 "
           id="polygon38" /><polygon
           class="cls-1"
           points="466.04,164.65 468.65,209.95 455.04,223.57 451.8,173.59 "
           id="polygon39" /></g><g
         id="g50"><polygon
           points="266,0.38 102.13,0.38 95.5,47.26 43.3,47.26 28.53,228.02 41.16,239.12 0,253.37 121.01,400.38 266,400.38 410.99,400.38 532,253.37 490.84,239.12 503.47,228.02 488.7,47.26 436.5,47.26 429.87,0.38 "
           id="polygon40" /><polygon
           class="cls-3"
           points="181,143.73 266,143.73 351,143.73 331.68,22.89 268.93,22.89 263.07,22.89 200.32,22.89 "
           id="polygon41" /><polygon
           class="cls-5"
           points="373.15,143.18 383.78,154.8 438.94,154.8 437.71,135.91 405.11,124.68 393.9,31.23 356.87,31.23 "
           id="polygon42" /><polygon
           class="cls-5"
           points="158.85,143.16 175.13,31.23 138.1,31.23 126.89,124.68 94.29,135.91 93.06,154.8 148.17,154.8 "
           id="polygon43" /><polygon
           class="cls-4"
           points="171.04,155.69 103.47,244.16 28.6,263.44 134.1,377.26 262.99,377.26 269.01,377.26 397.9,377.26 503.4,263.44 428.53,244.16 360.96,155.69 "
           id="polygon44" /><polygon
           class="cls-6"
           points="100.99,69.13 59.91,69.13 56.34,128.49 94.72,110.54 "
           id="polygon45" /><polygon
           class="cls-2"
           points="94.53,177.25 91.43,225.74 130.04,177.25 "
           id="polygon46" /><polygon
           class="cls-7"
           points="52.79,162.61 50,211.01 64.54,225.57 68,172.16 "
           id="polygon47" /><polygon
           class="cls-6"
           points="431.01,69.13 472.09,69.13 475.66,128.49 437.28,110.54 "
           id="polygon48" /><polygon
           class="cls-2"
           points="437.47,177.25 440.57,225.74 401.96,177.25 "
           id="polygon49" /><polygon
           class="cls-7"
           points="479.21,162.61 482,211.01 467.46,225.57 464,172.16 "
           id="polygon50" /></g></g></g></svg>
